<?xml version="1.0" standalone="no"?>
<!DOCTYPE svg PUBLIC "-//W3C//DTD SVG 20010904//EN"
 "http://www.w3.org/TR/2001/REC-SVG-20010904/DTD/svg10.dtd">
<svg version="1.0" xmlns="http://www.w3.org/2000/svg"
 width="500.000000pt" height="500.000000pt" viewBox="0 0 500.000000 500.000000"
 preserveAspectRatio="xMidYMid meet">

<g transform="translate(0.000000,500.000000) scale(0.100000,-0.100000)"
fill="#000000" stroke="none">
<path d="M3650 4950 c0 -11 5 -20 10 -20 6 0 10 9 10 20 0 11 -4 20 -10 20 -5
0 -10 -9 -10 -20z"/>
<path d="M3830 4902 c0 -4 11 -24 25 -43 13 -20 22 -39 19 -42 -3 -3 8 -13 24
-21 l30 -16 -8 28 c-4 15 -12 26 -18 25 -6 -2 -9 3 -6 10 2 7 -3 21 -12 32 -8
11 -13 13 -9 5 4 -8 -2 -5 -13 8 -21 23 -32 28 -32 14z"/>
<path d="M3445 4890 c-3 -5 -2 -10 4 -10 5 0 13 5 16 10 3 6 2 10 -4 10 -5 0
-13 -4 -16 -10z"/>
<path d="M3342 4758 c-6 -6 -12 -21 -12 -32 0 -20 1 -19 16 2 18 26 15 49 -4
30z"/>
<path d="M3921 4750 c1 -23 13 -45 27 -47 18 -4 15 11 -8 38 -13 17 -19 19
-19 9z"/>
<path d="M2645 4685 c-5 -2 -82 -11 -170 -19 -88 -9 -241 -25 -340 -36 -99
-11 -214 -23 -255 -26 -68 -5 -77 -9 -99 -35 -21 -27 -22 -34 -12 -73 6 -24
13 -51 17 -60 10 -26 -24 -32 -46 -8 -18 19 -22 20 -50 5 -33 -16 -60 -6 -60
24 0 11 -6 10 -26 -6 -23 -18 -41 -21 -126 -21 -95 0 -100 1 -122 27 -28 32
-61 26 -51 -9 4 -15 3 -19 -3 -10 -7 10 -11 10 -22 -3 -7 -8 -21 -15 -30 -15
-15 0 -17 -6 -13 -32 3 -18 9 -38 14 -44 5 -6 12 -33 15 -60 4 -38 3 -45 -6
-31 -6 9 -18 17 -26 17 -23 0 -69 60 -70 92 -2 38 -7 41 -43 33 -28 -6 -42
-28 -23 -37 17 -7 40 -66 29 -77 -7 -7 -6 -15 2 -25 7 -8 10 -20 6 -25 -10
-17 35 -70 53 -63 12 4 14 1 8 -14 -17 -40 -18 -54 -4 -68 17 -16 13 -70 -7
-86 -19 -16 -37 12 -27 41 10 28 4 62 -9 54 -5 -4 -9 -23 -9 -45 0 -21 -5 -40
-13 -43 -18 -7 -19 -53 -2 -67 19 -16 102 -7 144 14 43 23 64 20 187 -19 60
-19 129 -35 153 -35 l45 0 -27 -28 c-15 -15 -27 -36 -27 -45 0 -10 -8 -17 -20
-17 -11 0 -20 -5 -20 -11 0 -5 -4 -8 -9 -5 -16 11 -101 -27 -98 -44 1 -12 -10
-15 -53 -17 -30 -1 -49 0 -42 3 17 8 15 27 -2 21 -7 -3 -18 -1 -24 5 -5 5 -38
12 -72 14 -46 3 -70 11 -94 29 -45 34 -92 52 -159 60 -67 9 -73 20 -16 29 23
4 56 13 75 21 28 12 34 19 34 44 0 17 -5 31 -11 31 -5 0 -8 4 -5 9 10 15 -31
94 -63 125 -17 16 -31 34 -31 39 0 6 -9 2 -20 -8 -10 -9 -26 -15 -35 -12 -18
7 -20 38 -4 54 8 8 7 17 -5 35 -9 12 -19 22 -21 21 -3 -2 -14 -3 -25 -3 -22 0
-56 55 -40 65 18 11 10 25 -12 22 -17 -1 -24 4 -26 19 -3 21 -42 42 -42 23 0
-5 -4 -8 -8 -7 -5 2 -23 -12 -39 -29 -34 -36 -61 -41 -98 -17 -14 9 -32 13
-45 9 -39 -12 -80 -99 -80 -171 0 -28 -6 -47 -20 -59 -11 -10 -20 -25 -20 -33
0 -9 -7 -24 -17 -34 -9 -10 -21 -39 -28 -65 -11 -45 -15 -48 -56 -58 -43 -11
-44 -12 -47 -55 -2 -32 2 -51 17 -71 15 -20 23 -52 28 -111 7 -76 10 -84 34
-95 19 -10 28 -23 33 -51 8 -56 34 -100 66 -117 15 -8 30 -20 32 -27 3 -7 6
-124 7 -259 l2 -246 -128 -12 c-70 -7 -131 -14 -135 -17 -4 -3 -38 -50 -75
-105 -38 -55 -74 -109 -81 -119 -14 -19 -7 -70 9 -70 5 0 9 14 9 30 0 46 26
80 63 80 17 0 39 -7 49 -17 10 -9 18 -11 18 -5 0 12 59 47 66 39 3 -3 2 -16
-1 -30 -5 -20 -14 -26 -52 -31 -25 -3 -63 -6 -84 -6 -21 0 -40 -4 -43 -8 -2
-4 57 -8 132 -7 132 0 137 -1 148 -23 6 -12 14 -25 18 -29 8 -9 2 47 -9 71 -9
20 7 53 60 123 34 44 45 46 45 6 0 -13 4 -22 9 -19 11 7 41 -3 41 -14 0 -4
-16 -15 -35 -24 -19 -9 -40 -27 -46 -39 -7 -12 -21 -30 -32 -39 -17 -15 -18
-18 -4 -18 12 0 17 -9 17 -30 0 -24 -4 -30 -20 -30 -18 0 -19 -3 -10 -21 7
-11 9 -23 6 -26 -3 -4 3 -13 14 -20 11 -8 31 -36 45 -63 22 -43 23 -49 8 -54
-9 -4 -21 -2 -27 4 -13 13 -26 13 -26 0 0 -5 5 -10 11 -10 6 0 34 -14 61 -32
34 -22 51 -41 55 -60 3 -15 8 -27 12 -26 3 1 18 -2 33 -6 29 -9 36 -22 16 -28
-17 -6 -58 3 -58 12 0 9 -83 -6 -110 -20 -30 -16 -24 -20 15 -9 46 13 120 8
121 -8 1 -7 2 -18 3 -23 1 -7 7 -6 15 2 8 7 12 16 9 21 -2 4 2 7 9 7 7 0 19 9
25 20 11 17 78 39 88 28 2 -2 -2 -17 -10 -32 -9 -16 -22 -53 -31 -82 -21 -75
-49 -90 -65 -36 -3 8 -8 5 -17 -8 -7 -11 -9 -20 -5 -19 19 3 33 -2 33 -11 0
-5 -11 -10 -25 -10 -14 0 -25 3 -25 8 0 6 -23 9 -107 12 -24 0 -54 40 -31 40
8 1 5 7 -7 18 -24 21 -65 78 -65 90 0 5 -12 19 -27 33 -20 19 -25 20 -20 6 5
-13 0 -20 -16 -27 -21 -8 -21 -9 6 -9 17 -1 27 -6 27 -16 0 -8 -5 -15 -11 -15
-6 0 -3 -7 5 -16 9 -8 16 -25 16 -37 0 -12 3 -39 6 -60 l7 -37 -57 0 c-31 0
-56 -4 -56 -10 0 -5 15 -10 33 -11 41 0 72 -38 80 -96 4 -38 3 -43 -15 -43
-15 0 -18 3 -10 13 8 9 0 11 -36 7 -35 -3 -40 -5 -19 -8 24 -3 26 -6 16 -18
-10 -13 -6 -14 28 -8 l40 6 7 -52 c4 -29 5 -55 2 -57 -3 -3 -24 -7 -48 -8 -24
-2 -64 -6 -90 -10 -52 -6 -59 2 -27 31 16 15 20 27 16 56 -3 25 0 41 9 49 8 6
11 16 7 22 -3 6 -10 24 -14 41 -7 26 -8 24 -4 -12 5 -38 3 -44 -20 -54 -24
-11 -24 -11 -5 -28 26 -23 25 -42 -5 -70 -13 -12 -22 -27 -19 -31 3 -5 -4 -9
-15 -9 -19 0 -21 6 -21 59 0 48 3 60 18 64 14 4 13 5 -4 6 -19 1 -22 10 -32
119 -6 64 -10 124 -9 132 0 8 -2 40 -6 70 -4 30 -9 82 -12 115 -2 33 -7 104
-11 157 l-7 97 26 7 c15 3 45 4 67 2 22 -2 40 0 40 4 0 14 -109 12 -124 -2 -5
-5 -15 -6 -22 -3 -17 6 -18 21 6 -204 22 -208 30 -307 29 -371 0 -23 3 -47 7
-53 3 -6 8 -50 10 -97 4 -96 9 -118 27 -124 7 -2 65 1 131 6 l118 11 33 38 33
38 7 -104 c4 -58 6 -142 3 -187 l-3 -83 71 -53 c58 -43 77 -64 107 -121 20
-38 41 -89 47 -114 13 -53 30 -388 35 -708 2 -156 7 -237 15 -245 27 -27 35
41 46 384 6 183 -14 580 -32 648 -12 42 33 23 61 -27 6 -10 2 -12 -14 -6 -31
10 -26 0 13 -23 30 -18 34 -18 29 -4 -6 15 -5 15 10 3 9 -7 15 -17 12 -21 -2
-4 7 -5 20 -2 16 3 25 0 25 -8 0 -7 -7 -10 -17 -6 -11 4 -7 -3 10 -19 15 -14
27 -28 27 -31 0 -2 11 -95 25 -207 13 -111 29 -266 34 -345 11 -152 24 -197
56 -197 19 0 20 7 19 125 -1 85 -8 158 -23 227 -25 120 -27 211 -6 239 8 10
15 27 15 37 0 10 8 17 21 17 11 0 18 -4 15 -9 -3 -5 4 -11 17 -15 12 -3 31
-19 42 -35 10 -16 23 -27 28 -24 13 8 27 -17 27 -51 0 -28 0 -28 46 -21 l47 7
-7 -29 c-18 -72 -18 -88 3 -107 20 -18 22 -18 71 3 62 27 86 21 148 -33 26
-22 56 -46 67 -52 11 -6 33 -34 49 -61 33 -58 66 -81 129 -89 38 -6 46 -10 51
-33 9 -42 20 -51 72 -59 36 -6 65 -20 104 -51 30 -24 118 -88 195 -143 77 -54
154 -113 172 -129 38 -35 41 -35 53 -5 5 14 41 45 82 71 107 70 111 71 151 46
63 -39 97 -20 111 60 11 60 87 131 171 159 44 15 79 33 95 52 42 48 107 31
139 -36 32 -67 35 -120 12 -233 -27 -133 -27 -143 4 -143 22 0 27 9 55 97 41
134 40 194 -5 298 -19 44 -35 88 -35 97 0 33 63 91 135 123 39 18 91 51 115
74 49 46 49 46 85 29 37 -17 68 2 109 66 41 65 53 72 136 85 68 11 100 32 100
66 0 30 19 45 55 45 17 0 56 7 86 16 43 12 66 28 111 75 36 38 68 62 87 65 42
9 80 49 94 101 l11 43 52 0 c73 0 109 31 121 103 l8 52 58 3 c36 2 57 7 57 15
0 7 -36 143 -80 302 -44 160 -90 326 -101 370 -12 44 -32 117 -45 161 -13 45
-24 96 -24 113 0 32 -2 30 73 46 44 9 59 28 58 76 0 24 -1 62 -1 83 0 27 7 47
20 62 17 17 21 34 20 85 -1 88 18 167 41 174 10 4 35 25 54 48 l36 42 30 -18
c28 -15 89 -24 89 -12 0 13 -39 67 -63 85 -14 11 -27 33 -29 48 -3 28 -26 46
-204 165 -107 72 -125 91 -117 130 5 23 3 28 -7 22 -20 -12 -30 15 -31 85 -1
83 -13 170 -25 179 -5 3 -25 23 -44 44 -32 35 -33 39 -17 48 10 6 14 15 10 22
-4 7 2 5 12 -3 17 -14 18 -13 12 2 -4 11 12 50 43 105 27 48 57 109 66 136 19
57 37 64 127 48 115 -20 127 -17 184 42 47 48 79 108 66 121 -13 13 -53 6 -53
-9 0 -8 -5 -15 -12 -15 -7 0 -22 -12 -34 -27 l-22 -28 -7 27 c-6 23 -54 58
-81 58 -4 0 -15 7 -24 15 -9 8 -41 20 -71 26 -30 5 -65 13 -79 15 -13 3 -27 9
-30 14 -14 23 -83 60 -102 54 -12 -3 -27 1 -39 12 -19 17 -20 17 -34 -3 -12
-17 -22 -20 -67 -16 -84 7 -101 12 -94 30 5 13 4 14 -9 3 -14 -12 -14 -15 0
-30 9 -9 32 -26 53 -36 63 -32 121 -74 133 -95 12 -23 -11 -80 -64 -159 -34
-51 -106 -125 -122 -125 -5 0 -11 -17 -13 -37 -2 -21 -8 -38 -15 -38 -7 1 -29
22 -50 48 -33 40 -38 52 -34 85 5 32 3 36 -9 26 -24 -20 -32 -1 -53 126 -11
66 -25 135 -30 154 -10 33 -9 36 42 85 73 71 104 122 111 181 4 40 3 46 -5 29
-13 -25 -58 -40 -144 -49 -74 -7 -236 -46 -252 -60 -6 -5 -28 -21 -47 -35 -20
-14 -36 -31 -36 -38 0 -20 -59 -75 -74 -69 -13 5 -31 60 -41 126 -3 19 -10 41
-15 50 -7 13 -9 11 -14 -9 -11 -49 -13 -135 -3 -157 11 -26 23 -29 30 -10 3 6
4 -1 4 -18 -2 -29 0 -30 44 -33 28 -2 71 5 105 17 35 11 61 16 65 10 3 -5 13
-43 23 -85 13 -54 15 -79 7 -87 -7 -7 -13 -3 -20 16 -5 14 -19 28 -30 32 -12
3 -21 13 -21 20 0 19 -44 48 -66 43 -13 -2 -10 -9 14 -35 17 -17 34 -28 39
-25 4 4 -1 -3 -11 -16 -11 -12 -22 -19 -25 -14 -3 5 -16 14 -28 21 -13 6 -23
17 -23 24 0 22 -74 47 -109 37 -28 -8 -32 -6 -37 16 -3 13 -11 24 -18 23 -37
-5 -66 4 -93 29 l-31 27 2 110 c2 117 -9 151 -55 176 -18 9 -461 22 -484 14z
m-320 -81 c22 -3 71 -12 108 -20 38 -8 83 -15 100 -15 27 -1 26 -3 -13 -10
-48 -8 -699 -14 -707 -5 -13 12 45 26 153 36 179 16 195 18 202 24 5 6 68 2
157 -10z m753 -85 c13 -28 22 -54 20 -58 -8 -20 -104 -161 -110 -161 -12 0
-100 195 -102 224 -1 30 0 30 58 33 33 2 62 6 65 8 2 3 14 5 25 5 15 0 27 -14
44 -51z m-228 21 c0 -15 -110 -190 -119 -190 -5 0 -29 40 -54 89 l-46 89 77 7
c42 4 82 8 87 10 22 8 55 4 55 -5z m-810 -25 c0 -5 -64 -145 -88 -192 -9 -18
-19 -33 -22 -33 -5 1 -90 112 -111 147 -11 19 -11 27 3 55 l15 33 102 -3 c55
-2 101 -5 101 -7z m510 9 c0 -11 -91 -166 -95 -162 -2 2 -23 38 -48 80 -37 63
-42 77 -29 80 21 4 172 5 172 2z m-740 -13 c0 -6 -4 -12 -8 -15 -5 -3 -9 1 -9
9 0 8 4 15 9 15 4 0 8 -4 8 -9z m460 2 c0 -3 -19 -44 -42 -89 l-42 -83 -33 49
c-18 27 -33 52 -33 56 0 3 -9 17 -20 31 -11 14 -20 30 -20 34 0 5 43 9 95 9
52 0 95 -3 95 -7z m-100 -188 c0 -15 -101 -215 -108 -215 -4 0 -31 36 -60 80
l-54 79 54 119 53 120 57 -87 c32 -47 58 -90 58 -96z m988 123 l0 -53 -15 29
c-12 24 -13 33 -2 52 7 13 14 24 15 24 2 0 3 -24 2 -52z m-1420 -77 c2 -28 0
-51 -5 -51 -20 0 -33 26 -33 65 0 78 30 67 38 -14z m-304 -37 c-1 -58 -25 -84
-76 -84 -28 0 -38 4 -38 16 0 11 5 14 16 10 8 -3 26 -3 39 0 22 5 23 9 18 56
-4 37 -2 52 8 59 22 13 34 -8 33 -57z m-93 25 c-39 -24 -53 -24 -49 -2 2 11
16 20 33 24 44 8 51 -1 16 -22z m2910 -22 c-10 -9 -11 -8 -5 6 3 10 9 15 12
12 3 -3 0 -11 -7 -18z m-2363 -31 c30 -41 31 -46 19 -75 l-13 -31 -22 68 c-32
99 -30 103 16 38z m613 -54 c18 -31 43 -72 56 -91 13 -19 23 -40 23 -48 0 -12
-107 -193 -115 -193 -4 0 -114 164 -120 182 -7 17 104 220 115 213 5 -3 23
-31 41 -63z m-246 -42 l65 -100 -57 -100 c-31 -55 -60 -100 -63 -100 -3 0 -14
13 -23 30 -10 16 -23 35 -30 42 -7 7 -26 32 -44 56 l-31 43 56 114 c32 62 58
114 59 114 1 1 32 -44 68 -99z m545 -39 l42 -86 -60 -88 c-59 -87 -61 -88 -75
-65 -60 99 -97 166 -97 176 0 6 26 52 58 102 67 105 60 107 132 -39z m-2082
91 c16 -10 31 -132 25 -198 -4 -38 -1 -54 11 -66 9 -9 16 -21 16 -27 0 -6 4
-11 9 -11 5 0 11 -9 14 -20 3 -13 10 -18 21 -14 17 7 22 -11 6 -21 -5 -3 -10
-18 -10 -33 l0 -27 15 29 c8 15 15 35 15 42 0 8 5 14 10 14 6 0 11 -19 12 -42
l1 -43 4 43 c2 23 9 42 14 42 10 0 14 -8 23 -51 5 -24 12 -27 63 -34 97 -11
131 -24 155 -56 13 -17 38 -40 56 -51 31 -19 32 -21 16 -39 -16 -17 -16 -19 0
-25 14 -5 15 -9 4 -15 -10 -7 -10 -14 5 -38 18 -31 23 -76 7 -66 -5 3 -10 2
-10 -4 0 -5 5 -13 10 -16 21 -13 4 -132 -18 -128 -19 4 -22 -48 -18 -327 3
-199 9 -297 21 -355 22 -112 61 -413 74 -580 17 -216 21 -246 36 -300 20 -73
25 -155 10 -155 -15 0 -29 -63 -20 -92 4 -11 -1 -37 -11 -61 -14 -30 -15 -42
-6 -45 8 -2 12 -25 12 -61 0 -57 0 -58 47 -92 26 -19 54 -37 63 -41 8 -4 -2
-7 -25 -7 -46 -1 -100 28 -110 58 -3 12 -11 21 -16 21 -6 0 -9 17 -8 38 4 67
-1 103 -16 108 -16 7 -126 -43 -138 -63 -36 -58 -32 98 4 168 11 22 31 45 44
51 14 6 25 18 25 27 0 28 -46 152 -53 145 -4 -4 -7 13 -6 37 1 37 2 40 9 19 5
-15 8 -18 9 -8 2 26 -10 48 -25 48 -17 0 -17 1 -4 34 6 16 6 27 0 31 -15 9
-12 51 5 65 13 10 12 15 -8 31 l-22 18 22 1 c12 0 25 5 29 11 5 9 -1 10 -19 5
-23 -5 -27 -3 -34 21 -3 16 -7 58 -7 95 -1 36 -3 65 -6 63 -3 -2 -6 19 -8 46
-1 29 2 49 8 49 5 0 10 -13 10 -30 0 -24 4 -30 21 -30 17 0 20 -5 17 -25 -3
-14 -1 -28 3 -31 5 -3 9 1 10 8 2 30 -2 105 -7 131 -6 28 -6 28 -21 8 -20 -29
-53 -28 -53 2 0 12 -3 39 -6 59 -6 33 -4 39 17 47 24 10 24 10 -3 10 -24 1
-28 5 -28 32 0 17 4 28 10 24 13 -8 13 1 0 26 -14 25 -3 44 16 28 8 -7 14 -7
14 -1 0 5 -6 15 -14 21 -11 9 -15 9 -19 -1 -2 -7 -8 -9 -13 -5 -5 5 -2 14 6
20 13 10 40 59 40 72 0 3 -6 5 -14 5 -8 0 -29 17 -47 38 -17 20 -28 31 -24 24
4 -7 -3 -21 -17 -33 -18 -16 -19 -18 -3 -10 14 7 27 5 48 -7 23 -14 27 -22 22
-42 -13 -50 -43 -65 -67 -32 -20 27 -50 21 -71 -17 l-20 -33 64 3 64 4 1 -52
c0 -29 5 -58 11 -65 6 -7 13 -34 15 -60 l6 -48 -32 0 c-17 0 -37 4 -45 9 -8 5
-25 3 -43 -6 -17 -9 -42 -13 -59 -9 -18 3 -29 1 -29 -6 0 -6 -7 -19 -16 -29
-12 -13 -13 -22 -5 -38 16 -29 14 -33 -11 -26 l-23 7 22 -16 c11 -9 33 -20 47
-26 32 -12 45 -38 25 -51 -11 -7 -11 -9 3 -9 46 0 46 11 2 54 -31 28 -45 51
-47 71 -2 27 2 31 53 47 52 17 132 19 148 4 12 -13 30 -161 19 -165 -5 -2 -5
-6 2 -10 5 -4 13 -32 17 -64 6 -50 5 -57 -11 -57 -23 0 -77 39 -70 51 4 5 0 9
-8 9 -25 0 -27 -13 -4 -25 12 -6 21 -16 20 -22 -2 -10 48 -26 63 -20 11 3 22
-36 29 -105 7 -63 6 -65 -16 -71 -13 -4 -34 -7 -46 -7 -13 0 -23 -2 -23 -4 0
-2 -3 -12 -6 -21 -6 -16 -5 -16 24 -1 33 17 68 21 75 9 3 -5 7 -29 11 -54 l7
-47 -50 -7 c-73 -10 -94 -1 -89 40 2 19 0 31 -4 29 -4 -3 -8 -11 -8 -19 0 -8
-8 -18 -17 -24 -14 -7 -15 -12 -5 -24 10 -12 8 -16 -10 -20 -27 -7 -35 -1 -40
33 -2 18 1 25 13 24 12 -1 16 7 15 34 -1 32 2 36 33 44 31 9 33 11 18 26 -16
15 -18 14 -37 -6 -23 -24 -50 -29 -51 -9 0 6 -3 25 -5 40 -4 25 -3 27 15 18
29 -16 33 -14 19 9 -8 13 -20 19 -30 16 -13 -3 -18 2 -18 16 0 10 4 16 10 13
5 -3 10 1 10 10 0 9 13 23 29 33 29 16 29 16 7 27 -28 14 -27 38 4 46 20 6 17
7 -17 8 l-41 1 15 -32 c11 -21 13 -36 7 -46 -23 -36 -35 5 -34 113 0 20 -7 34
-20 43 -11 7 -20 8 -20 3 0 -9 -32 -17 -103 -28 -48 -7 -81 19 -72 55 4 16 2
22 -7 21 -19 -4 -58 11 -58 22 0 6 9 5 21 -2 21 -11 38 0 39 25 0 4 7 5 16 2
14 -5 15 -4 4 9 -10 12 -8 23 8 59 17 36 30 47 65 61 34 13 50 14 65 6 26 -14
79 -14 87 -1 4 6 -10 10 -34 10 -49 0 -71 8 -71 26 0 19 -5 18 -34 -11 -33
-32 -60 -34 -50 -2 11 37 33 87 38 87 19 0 36 -16 36 -33 0 -20 2 -20 26 7 22
22 32 27 56 22 24 -5 29 -3 26 12 -2 10 -11 16 -23 14 -96 -15 -115 -14 -115
2 0 21 39 36 96 36 31 0 43 4 38 11 -4 7 -24 9 -55 5 -27 -4 -49 -3 -49 1 0 5
14 23 30 41 17 18 30 35 30 37 0 3 16 30 36 60 42 66 76 87 101 62 15 -15 17
-15 28 0 7 10 27 17 49 17 27 1 36 5 36 18 0 9 -6 18 -12 20 -15 5 -18 121 -5
185 7 33 5 47 -9 68 -16 25 -16 27 3 44 14 13 19 30 17 62 -4 79 -3 76 -14 59
-8 -12 -10 -12 -10 5 0 11 4 35 9 53 6 20 6 32 0 32 -5 0 -9 -8 -10 -17 0 -10
-6 0 -13 23 -7 23 -11 56 -9 75 2 27 1 30 -6 14 -8 -17 -10 -13 -10 18 -1 23
3 36 9 32 6 -3 10 -2 10 4 0 6 11 13 25 17 37 9 31 21 -9 18 -24 -2 -36 2 -40
13 -5 13 -1 14 26 9 30 -6 31 -5 17 9 -13 13 -24 14 -60 6 -72 -16 -191 -17
-218 -2 -35 19 -64 48 -54 54 4 2 25 7 46 11 21 4 41 14 44 22 9 23 -3 28 -35
15 -23 -10 -39 -10 -73 0 -27 8 -37 14 -26 16 23 6 22 19 -2 26 -10 2 -24 14
-30 25 -10 18 -7 23 17 38 29 16 29 18 35 135 6 107 4 161 -8 242 -4 24 -1 27
23 27 15 0 33 -4 40 -8z m134 -19 c52 -27 54 -30 57 -72 l3 -44 -34 27 c-49
41 -104 116 -84 116 2 0 28 -12 58 -27z m898 -16 c0 -28 -28 -69 -41 -61 -9 5
-4 57 8 77 10 16 33 6 33 -16z m263 -83 c20 -29 37 -57 37 -63 0 -17 -83 -181
-91 -181 -4 0 -14 44 -24 98 -9 53 -21 112 -27 130 -8 26 -6 42 8 76 l18 43
21 -26 c12 -14 38 -49 58 -77z m1062 -91 l23 -51 -21 -23 c-12 -13 -38 -44
-58 -71 l-36 -48 -58 114 -58 113 34 48 c19 26 45 63 58 83 l23 35 35 -74 c19
-41 45 -97 58 -126z m1466 144 c-16 -16 -26 20 -10 40 13 15 14 14 17 -7 2
-12 -1 -27 -7 -33z m-3106 -66 c-11 -64 -35 -47 -35 24 0 19 -5 37 -10 40 -6
4 -7 11 -4 17 4 6 16 0 31 -15 22 -21 24 -30 18 -66z m856 72 c13 -16 12 -17
-3 -4 -10 7 -18 15 -18 17 0 8 8 3 21 -13z m1299 9 c0 -4 3 -17 6 -29 8 -30
-22 -32 -31 -3 -3 11 -11 20 -16 20 -6 0 -8 4 -5 8 6 10 46 13 46 4z m-2357
-16 c16 -12 25 -50 40 -158 4 -28 2 -36 -8 -32 -7 3 -17 17 -23 32 -32 90 -49
172 -36 172 5 0 17 -7 27 -14z m253 -21 c17 -42 17 -45 1 -45 -14 0 -37 40
-37 65 0 27 21 15 36 -20z m-136 15 c0 -5 -7 -10 -15 -10 -8 0 -15 5 -15 10 0
6 7 10 15 10 8 0 15 -4 15 -10z m-29 -27 c12 -33 -2 -53 -26 -33 -23 19 -18
60 7 60 5 0 13 -12 19 -27z m3304 17 c-3 -5 -10 -10 -16 -10 -5 0 -9 5 -9 10
0 6 7 10 16 10 8 0 12 -4 9 -10z m-2820 -47 c-3 -20 -14 -51 -25 -67 -30 -46
-25 -19 15 92 9 26 16 10 10 -25z m1833 1 c2 -28 2 -28 -13 -9 -11 14 -12 21
-4 24 8 2 7 6 -2 13 -11 8 -11 9 1 5 8 -2 16 -17 18 -33z m-2272 -76 c20 -39
12 -58 -26 -58 -33 0 -35 6 -19 63 11 42 21 41 45 -5z m234 -53 c0 -49 -11
-68 -36 -63 -22 4 -21 41 2 98 12 27 17 32 24 20 5 -8 10 -33 10 -55z m541
-46 l49 -66 -36 -64 c-21 -35 -46 -82 -57 -104 l-20 -40 -49 55 c-73 82 -74
96 -14 218 46 92 52 101 64 85 7 -10 35 -48 63 -84z m1644 91 c3 -5 -1 -10 -9
-10 -9 0 -16 5 -16 10 0 6 4 10 9 10 6 0 13 -4 16 -10z m135 -45 c0 -5 -5 -3
-10 5 -5 8 -10 20 -10 25 0 6 5 3 10 -5 5 -8 10 -19 10 -25z m-60 15 c0 -5 -4
-10 -10 -10 -5 0 -10 5 -10 10 0 6 5 10 10 10 6 0 10 -4 10 -10z m1 -59 c37
-23 91 -87 87 -105 -3 -15 51 -95 65 -96 10 0 57 -50 57 -61 0 -5 14 -9 30 -9
17 0 30 -4 30 -9 0 -10 69 -45 76 -38 2 2 -2 15 -9 29 -28 55 -65 90 -123 118
-74 36 -105 65 -52 49 78 -25 75 -24 58 -4 -14 17 -13 18 5 11 11 -5 29 -11
40 -14 40 -10 178 -98 197 -125 18 -26 20 -39 14 -140 -3 -62 -6 -125 -5 -142
0 -46 -22 -16 -28 39 -3 25 -12 51 -19 57 -8 6 -14 21 -14 33 0 13 -11 33 -25
46 -22 21 -34 24 -87 22 -33 -2 -65 -5 -69 -8 -5 -3 -9 -27 -9 -55 0 -61 -20
-66 -42 -11 -15 38 -17 39 -76 45 -34 4 -68 4 -76 1 -19 -7 -27 -55 -16 -96 6
-18 10 -44 10 -57 0 -13 6 -32 13 -40 7 -9 19 -36 26 -61 7 -25 18 -57 23 -72
15 -41 4 -49 -54 -39 -5 0 -8 7 -8 14 0 8 -8 21 -18 30 -15 14 -18 28 -14 70
3 44 1 55 -17 71 -31 28 -39 11 -28 -62 7 -43 -7 -33 -21 15 -6 21 -19 66 -30
101 -18 60 -18 62 0 56 12 -3 18 0 19 10 2 25 4 30 13 45 9 14 12 34 20 111 2
27 8 36 25 38 22 4 29 30 12 47 -6 6 -12 23 -15 39 -3 16 -17 46 -31 67 -14
22 -25 42 -26 46 0 5 -6 18 -14 29 -8 12 -11 24 -8 28 10 9 86 -6 114 -23z
m-3044 -13 c-3 -8 -6 -5 -6 6 -1 11 2 17 5 13 3 -3 4 -12 1 -19z m1048 -58
c18 -7 18 -8 -7 -15 -15 -4 -31 -4 -37 -1 -5 4 -12 -3 -16 -14 -3 -11 -11 -20
-16 -20 -12 0 -11 4 3 35 12 26 35 31 73 15z m664 -257 c-28 -43 -55 -81 -59
-86 -7 -8 -124 148 -118 160 1 5 27 47 57 95 l53 87 60 -89 59 -89 -52 -78z
m-258 151 c64 -90 65 -74 -14 -197 l-49 -77 -63 77 -63 77 30 51 c16 27 41 74
56 103 14 29 31 51 37 49 5 -2 35 -39 66 -83z m506 -3 c29 -48 53 -93 55 -100
2 -6 -22 -45 -52 -86 l-55 -75 -22 28 c-13 15 -23 31 -23 35 0 4 -19 34 -41
66 l-41 59 39 53 c21 30 46 66 56 82 10 15 21 27 25 27 4 0 30 -40 59 -89z
m-840 42 c-3 -3 -10 -2 -16 2 -7 4 -7 10 2 20 10 11 13 11 15 -2 2 -8 1 -17
-1 -20z m-290 5 c-3 -8 -6 -5 -6 6 -1 11 2 17 5 13 3 -3 4 -12 1 -19z m250 6
c-3 -3 -12 -4 -19 -1 -8 3 -5 6 6 6 11 1 17 -2 13 -5z m1146 -130 l54 -105
-30 -32 c-16 -18 -41 -47 -54 -64 -14 -18 -28 -31 -32 -28 -18 11 -112 189
-106 203 11 29 98 141 106 136 5 -3 33 -52 62 -110z m-983 -42 c0 -7 -19 -46
-43 -86 l-42 -73 0 134 0 135 42 -49 c24 -26 43 -54 43 -61z m-1334 -18 c25
-12 50 -15 89 -11 31 3 55 2 55 -4 0 -5 7 -9 15 -9 21 0 19 -18 -2 -24 -59
-16 -104 -17 -134 -2 -18 9 -42 16 -55 16 -26 0 -38 14 -30 35 7 19 20 19 62
-1z m1440 -116 c29 -41 34 -26 -50 -156 -38 -60 -41 -62 -56 -43 -8 10 -33 41
-56 67 l-40 49 54 99 55 100 34 -40 c18 -21 45 -55 59 -76z m-216 17 c0 -56
-17 -86 -53 -91 -42 -6 -207 -100 -249 -142 l-48 -46 -1 29 c-2 47 1 57 31 93
40 48 132 115 230 167 47 24 86 44 88 45 1 0 2 -25 2 -55z m580 -120 c28 -41
50 -77 50 -81 0 -4 -25 -41 -57 -82 l-56 -75 -24 29 c-13 16 -42 50 -64 76
l-39 47 61 86 c33 47 65 82 70 79 5 -3 32 -39 59 -79z m281 -72 c16 -23 29
-44 29 -48 0 -4 -24 -35 -54 -71 l-55 -64 -28 41 c-15 22 -43 59 -60 82 -18
23 -33 46 -33 51 0 5 25 40 57 78 l56 69 30 -48 c17 -26 43 -67 58 -90z m-561
81 c19 -25 44 -57 54 -70 l20 -24 -58 -85 c-32 -47 -61 -85 -65 -83 -11 5
-111 115 -111 122 0 4 17 33 39 64 21 31 46 72 55 90 9 17 20 32 24 32 4 -1
23 -21 42 -46z m-236 -78 l56 -63 -33 -56 c-17 -31 -37 -56 -43 -57 -6 0 -24
10 -39 22 -27 21 -27 23 -23 107 3 76 11 111 23 111 2 0 28 -29 59 -64z m999
19 c15 -25 27 -49 27 -53 0 -4 -30 -22 -66 -41 l-67 -35 -18 23 c-11 13 -19
27 -19 31 0 9 101 120 109 120 4 0 18 -20 34 -45z m1177 -79 c0 -8 3 -21 6
-30 4 -11 1 -16 -10 -16 -11 0 -16 9 -16 30 0 17 5 30 10 30 6 0 10 -6 10 -14z
m-200 -33 c0 -7 -4 -13 -10 -13 -5 0 -10 12 -10 28 0 21 2 24 10 12 5 -8 10
-21 10 -27z m-1829 -86 c10 -17 6 -18 -53 -12 -92 10 -91 8 -60 59 l27 44 38
-36 c21 -20 43 -45 48 -55z m1889 28 c0 -8 -4 -15 -10 -15 -5 0 -10 7 -10 15
0 8 5 15 10 15 6 0 10 -7 10 -15z m114 0 c-4 -8 -10 -12 -15 -9 -14 8 -10 24
6 24 9 0 12 -6 9 -15z m-1694 -83 c-29 -5 -36 4 -19 24 12 14 14 14 27 -3 11
-16 11 -18 -8 -21z m-166 -255 c30 -40 33 -52 9 -41 -10 4 -49 11 -88 15 -148
16 -185 22 -179 28 3 3 51 11 107 17 56 6 107 12 114 12 7 1 23 -13 37 -31z
m-1770 -18 c-21 -35 -93 -140 -112 -164 l-22 -28 0 34 c-1 33 -1 33 -16 14 -9
-12 -13 -31 -10 -47 5 -25 2 -28 -19 -28 -14 0 -25 3 -26 8 0 4 -2 23 -4 42
-2 20 5 54 15 78 25 56 11 47 -19 -12 -31 -64 -82 -86 -111 -51 -11 13 -15 13
-21 3 -5 -7 -9 -8 -9 -2 0 5 8 19 18 30 10 10 28 36 41 57 26 43 43 54 86 57
50 4 59 1 47 -12 -8 -10 -2 -13 26 -15 29 -1 33 0 20 8 -40 22 -19 30 95 37
19 1 26 -2 21 -9z m1934 -129 c27 -41 38 -50 40 -37 4 17 5 17 22 2 21 -19 40
-13 40 13 0 11 8 6 21 -15 12 -18 24 -33 28 -33 4 0 5 23 3 52 -3 43 -1 49 11
40 9 -8 24 -9 44 -3 24 7 38 5 63 -10 21 -13 36 -16 47 -11 11 6 12 11 4 16
-6 4 -11 11 -11 16 0 5 16 -2 36 -15 20 -14 44 -25 53 -25 9 0 27 -3 41 -7 23
-6 24 -5 11 11 -22 27 -9 27 23 0 15 -14 26 -28 22 -31 -3 -4 -35 -1 -70 5
-86 16 -116 15 -159 -6 -39 -19 -87 -75 -87 -102 0 -9 7 -25 15 -36 15 -18 16
-17 10 14 -7 35 9 45 20 12 8 -25 55 -50 94 -50 47 0 100 79 89 131 -2 9 6 14
22 14 20 0 25 -5 26 -25 1 -39 -16 -83 -41 -107 -18 -17 -38 -23 -87 -26 -46
-2 -36 -4 39 -5 l102 -2 24 33 c44 58 60 97 46 113 -6 8 -7 14 -1 14 25 0 32
-27 20 -81 -6 -30 -11 -57 -10 -61 2 -6 -5 -36 -33 -158 -39 -163 -149 -316
-323 -448 -114 -87 -135 -96 -222 -96 -72 -1 -80 2 -147 42 -85 50 -237 208
-282 292 -16 30 -34 80 -39 110 l-10 55 19 -24 c24 -29 24 -27 -2 45 -12 32
-27 91 -35 129 -29 147 -6 301 27 183 16 -57 42 -84 97 -102 62 -22 99 -20 47
1 -60 25 -84 59 -85 116 0 46 1 48 26 45 22 -2 27 -9 31 -38 2 -19 12 -50 22
-70 16 -31 23 -35 61 -38 60 -5 98 14 109 52 9 31 9 31 10 -12 1 -35 -3 -44
-21 -52 l-23 -10 24 3 c34 3 59 84 40 130 -18 44 -65 59 -204 64 -66 3 -122 7
-124 9 -2 2 8 8 23 13 20 8 26 17 26 42 l0 32 76 -7 c43 -3 90 -13 107 -21 17
-8 34 -15 39 -15 5 0 28 -9 50 -20 23 -11 52 -20 65 -20 20 0 22 3 13 19 -5
11 -10 32 -10 48 l1 28 30 -35 c16 -19 47 -60 67 -90z m-1863 22 c-10 -10 -43
11 -47 31 -9 45 4 50 28 11 13 -21 21 -40 19 -42z m2285 23 c7 -8 8 -15 2 -15
-5 0 -15 7 -22 15 -7 8 -8 15 -2 15 5 0 15 -7 22 -15z m-1951 -59 c9 -11 5
-15 -21 -19 -41 -6 -49 0 -24 19 25 17 31 18 45 0z m-281 -43 c30 -46 30 -47
15 -92 -8 -25 -16 -55 -16 -66 -1 -11 -5 -22 -9 -25 -4 -3 -17 -34 -30 -70
-13 -35 -27 -65 -33 -67 -12 -3 -55 60 -55 81 0 8 -4 16 -8 18 -4 2 -17 20
-29 41 -19 32 -20 37 -6 37 23 0 53 -29 53 -52 0 -22 7 -23 26 -3 14 13 14 15
0 15 -26 0 -18 28 14 47 17 9 30 20 30 24 0 4 3 16 6 26 5 15 4 15 -7 -2 -13
-20 -50 -54 -59 -54 -16 -1 -50 39 -54 64 -4 17 -3 24 0 18 8 -18 24 -16 24 2
0 8 -5 15 -11 15 -15 0 42 71 65 80 39 16 54 10 84 -37z m3413 25 c6 -13 31
-52 55 -88 24 -36 48 -86 55 -111 12 -44 11 -52 -21 -130 -18 -46 -43 -107
-56 -136 -24 -53 -64 -200 -64 -234 0 -12 -10 -21 -27 -24 -79 -17 -171 -54
-210 -86 -7 -7 -41 -15 -76 -19 -34 -5 -72 -11 -84 -15 -22 -7 -23 -5 -19 36
3 24 11 48 18 54 13 9 28 66 59 225 13 64 44 140 59 140 12 0 68 109 86 165 6
22 17 39 23 38 14 -4 27 22 35 71 10 52 46 124 65 129 9 3 33 5 53 6 29 1 40
-4 49 -21z m169 12 c9 -6 16 -27 17 -57 4 -112 13 -144 45 -162 51 -27 67 -45
73 -78 3 -17 14 -60 25 -95 28 -89 26 -109 -23 -185 -23 -38 -48 -80 -55 -95
-14 -34 -27 -36 -36 -5 -39 131 -68 292 -70 392 -2 75 -11 98 -86 220 -33 55
-37 64 -22 68 32 9 117 7 132 -3z m-3146 -313 c4 -19 3 -26 -4 -22 -5 3 -10
18 -10 32 0 32 5 28 14 -10z m-299 -216 c-3 -6 -11 -11 -17 -11 -6 0 -6 6 2
15 14 17 26 13 15 -4z m3684 -156 c8 -27 27 -97 43 -155 16 -58 38 -138 47
-177 l18 -73 -33 -2 c-74 -4 -90 -5 -109 -11 -11 -4 -25 -3 -31 1 -18 11 -64
128 -64 163 0 18 -7 67 -16 109 l-15 77 44 89 c24 49 50 99 58 111 13 22 14
21 30 -30 8 -28 21 -74 28 -102z m-4035 102 c39 -64 45 -77 35 -77 -5 0 -9 4
-9 10 0 6 -9 6 -24 0 -21 -8 -24 -5 -30 22 -8 42 -8 78 2 78 4 0 16 -15 26
-33z m21 -93 c9 -9 27 -16 40 -16 41 0 84 -63 62 -91 -17 -20 -64 -30 -70 -14
-4 9 -8 9 -15 -2 -13 -19 -52 -4 -52 20 0 12 7 19 20 19 12 0 20 7 20 17 0 13
-3 14 -12 5 -19 -19 -27 -14 -34 22 -9 53 9 71 41 40z m155 -40 c0 -10 -7 -14
-22 -12 -32 5 -35 28 -4 28 17 0 26 -5 26 -16z m-213 -16 c-3 -8 -6 -5 -6 6
-1 11 2 17 5 13 3 -3 4 -12 1 -19z m353 3 c0 -4 16 -13 35 -20 47 -17 52 -43
51 -282 l-1 -195 -38 -62 c-26 -42 -36 -68 -32 -84 3 -13 7 -72 9 -133 2 -60
9 -159 15 -220 16 -145 18 -662 3 -677 -8 -8 -11 51 -11 225 0 131 -2 241 -4
245 -3 4 -8 81 -11 172 -8 188 -15 227 -50 290 -14 25 -30 55 -36 68 -5 12
-14 22 -20 22 -23 0 -8 29 23 41 17 7 53 29 78 49 41 31 48 41 54 84 4 26 4
81 0 122 -6 69 -15 88 -30 64 -3 -5 -14 -10 -23 -10 -9 0 -42 -18 -73 -39
-121 -84 -149 -90 -149 -31 0 43 17 53 40 25 20 -24 42 -18 104 25 31 22 65
40 74 40 31 0 44 17 47 61 1 24 5 63 10 85 7 38 4 45 -26 79 -32 34 -39 36
-99 39 -77 4 -78 4 -63 14 15 10 123 13 123 3z m1410 -28 c118 -123 227 -164
345 -132 42 12 139 73 190 121 35 32 45 35 45 11 0 -29 -34 -76 -107 -149
-117 -119 -194 -184 -216 -184 -28 0 -246 220 -274 275 -24 47 -37 95 -26 95
5 0 24 -17 43 -37z m2090 -16 c27 -13 54 -80 71 -177 5 -30 17 -75 26 -98 14
-40 14 -45 0 -60 -13 -13 -21 -13 -42 -4 -15 7 -25 8 -25 2 0 -6 -61 -10 -155
-10 l-155 0 5 40 c3 23 0 50 -5 61 -9 16 -7 29 9 62 11 23 23 54 27 70 3 15
10 30 15 33 5 3 9 16 9 29 0 13 5 27 10 30 6 3 10 15 10 27 0 20 4 20 88 13
48 -4 98 -12 112 -18z m-275 -8 c-4 -6 0 -9 11 -7 25 4 21 -27 -13 -101 -18
-41 -27 -82 -32 -151 -9 -117 -28 -154 -75 -146 -17 3 -58 8 -91 11 -80 9 -97
14 -88 28 5 9 2 8 -8 0 -21 -17 -89 -14 -89 4 0 7 -7 13 -15 13 -12 0 -15 19
-15 110 0 98 2 110 18 110 9 0 31 7 47 16 17 8 59 22 95 30 36 8 79 21 95 28
65 30 150 66 158 66 5 0 5 -5 2 -11z m-3118 -31 c-3 -8 -6 -5 -6 6 -1 11 2 17
5 13 3 -3 4 -12 1 -19z m1958 -127 c11 -38 15 -74 11 -98 -4 -21 -11 -72 -16
-113 -5 -41 -16 -100 -25 -130 -21 -66 -92 -210 -104 -210 -15 0 -39 45 -81
151 -47 117 -76 177 -98 202 -33 37 -23 58 77 157 53 53 114 118 135 144 l39
47 23 -45 c12 -24 30 -72 39 -105z m-652 70 c16 -20 69 -77 118 -127 58 -59
89 -99 89 -113 0 -12 -4 -20 -9 -17 -17 11 -77 -73 -106 -146 -29 -76 -80
-163 -108 -186 -14 -12 -19 -8 -40 36 -13 28 -37 94 -53 148 -24 83 -29 117
-29 209 0 105 1 113 35 180 39 79 51 92 65 69 6 -9 23 -33 38 -53z m-1691 49
c4 11 48 1 48 -11 0 -5 -9 -18 -20 -29 -11 -11 -20 -22 -20 -25 0 -10 -39 -49
-44 -44 -4 4 -9 92 -7 112 1 4 10 3 20 -3 12 -6 21 -6 23 0z m1998 -300 c0 -5
-4 -10 -10 -10 -5 0 -10 5 -10 10 0 6 5 10 10 10 6 0 10 -4 10 -10z m405 -75
c42 -104 49 -157 50 -360 0 -110 -3 -222 -7 -250 -4 -27 -13 -102 -20 -165
l-12 -116 -31 4 c-20 2 -38 -2 -48 -13 -10 -9 -17 -13 -17 -9 0 4 -13 -4 -28
-19 -23 -22 -37 -27 -73 -26 -24 1 -61 -2 -81 -6 l-38 -8 0 144 c0 99 -5 159
-15 194 -9 27 -13 56 -10 63 3 7 -9 68 -25 134 -31 126 -38 176 -20 148 7 -11
10 -3 10 28 0 36 31 122 44 122 2 0 25 -33 50 -72 58 -92 83 -121 96 -113 5 3
31 49 56 102 42 90 66 164 80 258 7 44 5 47 39 -40z m1721 36 c4 -14 13 -36
21 -49 20 -33 0 -37 -110 -22 -95 13 -107 19 -107 58 0 27 6 30 85 40 82 11
104 5 111 -27z m-3264 4 c3 -13 1 -22 -3 -19 -9 5 -13 44 -5 44 2 0 6 -11 8
-25z m677 -22 c5 -21 15 -65 22 -98 14 -65 80 -227 95 -232 5 -1 25 20 44 48
117 168 114 166 130 124 5 -14 10 -47 10 -73 0 -26 7 -60 15 -76 17 -33 12
-62 -16 -89 -13 -12 -19 -31 -18 -60 0 -23 -15 -103 -35 -177 -20 -74 -36
-152 -36 -174 0 -32 -3 -37 -17 -33 -83 26 -136 37 -184 37 -47 0 -62 5 -98
33 l-43 32 5 145 c6 142 48 434 82 563 8 32 15 60 15 62 0 3 4 5 10 5 5 0 14
-17 19 -37z m446 27 c3 -5 1 -10 -4 -10 -6 0 -11 5 -11 10 0 6 2 10 4 10 3 0
8 -4 11 -10z m-1421 -142 c-13 -64 -23 -125 -22 -138 1 -8 0 -31 -1 -50 -3
-33 -4 -33 -11 -10 -19 60 -4 194 24 212 15 11 15 11 10 -14z m2506 -33 c0 -8
-7 -15 -16 -15 -14 0 -14 3 -4 15 7 8 14 15 16 15 2 0 4 -7 4 -15z m428 -87
c2 -10 -6 -17 -23 -20 -27 -6 -34 9 -13 30 15 15 32 10 36 -10z m-1641 -40
c-3 -8 -6 -5 -6 6 -1 11 2 17 5 13 3 -3 4 -12 1 -19z m1513 -12 c0 -3 -4 -8
-10 -11 -5 -3 -10 -1 -10 4 0 6 5 11 10 11 6 0 10 -2 10 -4z m-1381 -83 c0
-10 -4 -27 -9 -38 -7 -16 -9 -13 -9 18 -1 20 4 37 9 37 6 0 10 -8 9 -17z
m-1423 -81 c15 -9 30 -132 16 -132 -14 0 -22 -75 -11 -113 4 -18 15 -95 23
-172 9 -77 21 -171 27 -208 8 -47 8 -75 1 -90 -10 -22 -10 -21 -21 7 -7 16
-16 86 -21 155 -6 69 -14 150 -20 181 -5 30 -11 105 -12 165 -1 61 -5 115 -9
120 -7 9 -12 55 -10 83 1 13 20 16 37 4z m174 -163 c0 -6 -4 -7 -10 -4 -5 3
-10 11 -10 16 0 6 5 7 10 4 6 -3 10 -11 10 -16z m2226 -87 c-18 -16 -18 -16
-6 6 6 13 14 21 18 18 3 -4 -2 -14 -12 -24z m-1869 -54 c-3 -8 -6 -5 -6 6 -1
11 2 17 5 13 3 -3 4 -12 1 -19z m1693 -18 c0 -5 -2 -10 -4 -10 -3 0 -8 5 -11
10 -3 6 -1 10 4 10 6 0 11 -4 11 -10z m-1706 -24 c-3 -9 -10 -16 -15 -16 -5 0
-4 9 3 20 14 22 21 20 12 -4z m457 -159 c-10 -9 -11 -8 -5 6 3 10 9 15 12 12
3 -3 0 -11 -7 -18z m-37 -64 c-35 -61 -34 -60 -43 -45 -4 7 6 28 28 52 20 22
37 40 39 40 2 0 -9 -21 -24 -47z m1271 -152 c21 -62 19 -150 -6 -232 -26 -85
-37 -83 -18 3 20 96 17 203 -9 261 -12 27 -22 52 -22 55 1 17 41 -48 55 -87z"/>
<path d="M1073 2600 c5 -33 12 -59 14 -57 6 7 -9 117 -17 117 -3 0 -2 -27 3
-60z"/>
<path d="M1040 2600 c0 -5 5 -10 11 -10 5 0 7 5 4 10 -3 6 -8 10 -11 10 -2 0
-4 -4 -4 -10z"/>
<path d="M930 2552 c-8 -4 -15 -14 -15 -22 0 -8 -11 -20 -23 -26 -16 -8 -20
-14 -12 -19 6 -4 15 -3 18 1 4 5 20 24 36 42 29 31 27 38 -4 24z"/>
<path d="M1060 2520 c0 -6 9 -20 20 -32 l20 -22 0 22 c0 12 -9 26 -20 32 -14
8 -20 8 -20 0z"/>
<path d="M715 2360 c-3 -5 1 -10 10 -10 9 0 13 5 10 10 -3 6 -8 10 -10 10 -2
0 -7 -4 -10 -10z"/>
<path d="M1196 2188 c-4 -65 -3 -126 3 -143 7 -22 10 6 10 113 1 78 -1 142 -3
142 -2 0 -7 -51 -10 -112z"/>
<path d="M926 2248 c7 -11 46 -10 64 2 10 6 3 9 -27 7 -23 0 -39 -5 -37 -9z"/>
<path d="M970 2210 c0 -5 5 -10 10 -10 6 0 10 5 10 10 0 6 -4 10 -10 10 -5 0
-10 -4 -10 -10z"/>
<path d="M1211 1991 c-11 -21 -26 -41 -33 -43 -14 -5 -16 -98 -3 -203 7 -64
-7 -110 -34 -110 -19 0 -51 -63 -51 -102 0 -36 11 -40 50 -18 14 8 36 14 48
15 13 0 36 7 51 16 23 13 30 28 40 78 12 61 8 161 -9 226 -5 19 -12 66 -16
103 -4 37 -11 70 -15 73 -5 2 -17 -13 -28 -35z"/>
<path d="M3860 3619 c0 -5 5 -7 10 -4 6 3 10 8 10 11 0 2 -4 4 -10 4 -5 0 -10
-5 -10 -11z"/>
<path d="M475 2810 c-3 -5 -1 -10 4 -10 6 0 11 5 11 10 0 6 -2 10 -4 10 -3 0
-8 -4 -11 -10z"/>
<path d="M2280 2072 c0 -15 29 -24 80 -27 25 -1 81 -5 125 -10 116 -12 138
-11 142 2 3 7 -7 11 -29 11 -40 -1 -262 20 -294 28 -13 4 -24 2 -24 -4z"/>
<path d="M602 2509 c-15 -24 -13 -32 7 -20 7 5 11 16 9 25 -2 14 -5 13 -16 -5z"/>
<path d="M3728 1753 c7 -3 16 -2 19 1 4 3 -2 6 -13 5 -11 0 -14 -3 -6 -6z"/>
<path d="M2190 1132 c0 -5 10 -17 22 -28 l21 -19 -18 28 c-18 28 -25 33 -25
19z"/>
<path d="M2272 1070 c0 -14 2 -19 5 -12 2 6 2 18 0 25 -3 6 -5 1 -5 -13z"/>
<path d="M1923 1000 c0 -25 2 -35 4 -22 2 12 2 32 0 45 -2 12 -4 2 -4 -23z"/>
<path d="M3941 4674 c0 -11 3 -14 6 -6 3 7 2 16 -1 19 -3 4 -6 -2 -5 -13z"/>
<path d="M3961 4678 c0 -9 -4 -25 -7 -35 -5 -17 -5 -17 6 0 6 10 9 25 7 35 -4
15 -5 15 -6 0z"/>
<path d="M3331 4664 c0 -11 3 -14 6 -6 3 7 2 16 -1 19 -3 4 -6 -2 -5 -13z"/>
<path d="M938 4353 c6 -2 12 -12 12 -21 0 -15 2 -15 10 -2 9 15 -4 30 -25 29
-5 0 -4 -3 3 -6z"/>
<path d="M4770 4310 c0 -11 4 -20 9 -20 5 0 7 9 4 20 -3 11 -7 20 -9 20 -2 0
-4 -9 -4 -20z"/>
<path d="M990 4256 c0 -8 3 -22 6 -31 9 -23 23 0 17 26 -6 22 -23 26 -23 5z"/>
<path d="M1091 4246 c-6 -8 -16 -41 -22 -75 -11 -59 -10 -62 20 -108 29 -43
31 -44 31 -20 0 15 -6 27 -12 27 -9 0 -8 4 2 10 12 8 13 13 3 29 -14 22 -15
99 -1 107 11 7 10 44 -1 44 -5 0 -14 -6 -20 -14z"/>
<path d="M956 4211 c-3 -5 1 -11 9 -14 9 -4 12 -1 8 9 -6 16 -10 17 -17 5z"/>
<path d="M4300 3780 c0 -5 5 -10 11 -10 5 0 7 5 4 10 -3 6 -8 10 -11 10 -2 0
-4 -4 -4 -10z"/>
<path d="M270 2480 c-9 -6 -10 -10 -3 -10 6 0 15 5 18 10 8 12 4 12 -15 0z"/>
<path d="M386 2456 c21 -15 30 -14 19 3 -3 6 -14 11 -23 11 -13 0 -13 -2 4
-14z"/>
<path d="M162 2438 c-7 -9 -6 -22 2 -43 l13 -30 -1 43 c-1 48 0 46 -14 30z"/>
<path d="M183 2339 c1 -13 8 -33 14 -44 10 -17 14 -18 25 -7 11 11 10 13 -2
10 -9 -2 -16 6 -18 22 -5 33 -22 50 -19 19z"/>
<path d="M345 2340 c-11 -5 -39 -9 -62 -9 -24 -1 -43 -5 -43 -9 0 -5 13 -7 30
-4 23 3 35 -2 50 -19 l19 -24 1 26 c0 17 8 30 23 37 26 13 11 14 -18 2z"/>
<path d="M220 2190 c0 -5 4 -10 9 -10 6 0 13 5 16 10 3 6 -1 10 -9 10 -9 0
-16 -4 -16 -10z"/>
<path d="M305 2190 c-3 -5 -11 -8 -18 -6 -7 1 -9 1 -4 -1 4 -3 7 -11 7 -20 0
-21 22 -11 31 15 8 22 -4 31 -16 12z"/>
<path d="M445 2180 c3 -5 8 -10 11 -10 2 0 4 5 4 10 0 6 -5 10 -11 10 -5 0 -7
-4 -4 -10z"/>
<path d="M190 2161 c0 -6 5 -13 11 -16 6 -4 8 -12 6 -19 -3 -6 1 -20 8 -30 12
-16 14 -16 20 3 4 13 15 21 27 21 22 0 17 14 -5 16 -7 0 -20 2 -29 2 -10 1
-18 9 -18 17 0 8 -4 15 -10 15 -5 0 -10 -4 -10 -9z"/>
<path d="M691 2160 c-4 -3 -10 -18 -13 -33 l-6 -29 34 33 c19 18 34 34 34 35
0 5 -41 0 -49 -6z"/>
<path d="M238 2034 c4 -22 2 -23 -27 -18 -20 4 -31 3 -31 -5 0 -6 11 -11 24
-11 13 0 30 -2 38 -5 7 -3 18 3 24 13 9 14 7 20 -11 34 -21 16 -22 16 -17 -8z"/>
<path d="M260 1969 c0 -5 5 -7 10 -4 6 3 10 8 10 11 0 2 -4 4 -10 4 -5 0 -10
-5 -10 -11z"/>
<path d="M320 1766 c0 -8 7 -16 15 -20 13 -4 14 -2 5 14 -13 23 -20 26 -20 6z"/>
</g>
</svg>
